<svg width="90" height="26" viewBox="0 0 90 26" fill="none" xmlns="http://www.w3.org/2000/svg">
<path d="M17.9659 7.72481V6.16231H28.875V7.72481H24.3011V20.7078H22.5398V7.72481H17.9659ZM43.2607 13.435C43.2607 14.9691 42.9837 16.2949 42.4297 17.4123C41.8757 18.5297 41.1158 19.3915 40.1499 19.9975C39.1839 20.6036 38.0807 20.9066 36.8402 20.9066C35.5997 20.9066 34.4964 20.6036 33.5305 19.9975C32.5646 19.3915 31.8047 18.5297 31.2507 17.4123C30.6967 16.2949 30.4197 14.9691 30.4197 13.435C30.4197 11.9009 30.6967 10.5752 31.2507 9.45776C31.8047 8.34034 32.5646 7.4786 33.5305 6.87254C34.4964 6.26648 35.5997 5.96344 36.8402 5.96344C38.0807 5.96344 39.1839 6.26648 40.1499 6.87254C41.1158 7.4786 41.8757 8.34034 42.4297 9.45776C42.9837 10.5752 43.2607 11.9009 43.2607 13.435ZM41.5561 13.435C41.5561 12.1756 41.3454 11.1126 40.924 10.2461C40.5073 9.37964 39.9415 8.72386 39.2266 8.27879C38.5163 7.83371 37.7209 7.61117 36.8402 7.61117C35.9595 7.61117 35.1617 7.83371 34.4467 8.27879C33.7365 8.72386 33.1707 9.37964 32.7493 10.2461C32.3326 11.1126 32.1243 12.1756 32.1243 13.435C32.1243 14.6945 32.3326 15.7575 32.7493 16.624C33.1707 17.4904 33.7365 18.1462 34.4467 18.5913C35.1617 19.0364 35.9595 19.2589 36.8402 19.2589C37.7209 19.2589 38.5163 19.0364 39.2266 18.5913C39.9415 18.1462 40.5073 17.4904 40.924 16.624C41.3454 15.7575 41.5561 14.6945 41.5561 13.435ZM46.2223 20.7078V6.16231H55.0007V7.72481H47.9837V12.2703H51.6768C52.7185 12.2703 53.5968 12.4407 54.3118 12.7816C55.0315 13.1225 55.576 13.6031 55.9453 14.2234C56.3194 14.8437 56.5064 15.5752 56.5064 16.418C56.5064 17.2608 56.3194 18.0042 55.9453 18.6481C55.576 19.292 55.0315 19.7963 54.3118 20.1609C53.5968 20.5255 52.7185 20.7078 51.6768 20.7078H46.2223ZM47.9837 19.1737H51.6768C52.3397 19.1737 52.9008 19.0411 53.3601 18.7759C53.8241 18.5061 54.1745 18.1604 54.4112 17.739C54.6527 17.3129 54.7734 16.8631 54.7734 16.3896C54.7734 15.6936 54.5059 15.0946 53.9709 14.5927C53.4358 14.0861 52.6712 13.8328 51.6768 13.8328H47.9837V19.1737ZM71.6786 13.435C71.6786 14.9691 71.4016 16.2949 70.8477 17.4123C70.2937 18.5297 69.5337 19.3915 68.5678 19.9975C67.6019 20.6036 66.4987 20.9066 65.2582 20.9066C64.0176 20.9066 62.9144 20.6036 61.9485 19.9975C60.9826 19.3915 60.2227 18.5297 59.6687 17.4123C59.1147 16.2949 58.8377 14.9691 58.8377 13.435C58.8377 11.9009 59.1147 10.5752 59.6687 9.45776C60.2227 8.34034 60.9826 7.4786 61.9485 6.87254C62.9144 6.26648 64.0176 5.96344 65.2582 5.96344C66.4987 5.96344 67.6019 6.26648 68.5678 6.87254C69.5337 7.4786 70.2937 8.34034 70.8477 9.45776C71.4016 10.5752 71.6786 11.9009 71.6786 13.435ZM69.9741 13.435C69.9741 12.1756 69.7634 11.1126 69.342 10.2461C68.9253 9.37964 68.3595 8.72386 67.6445 8.27879C66.9343 7.83371 66.1388 7.61117 65.2582 7.61117C64.3775 7.61117 63.5797 7.83371 62.8647 8.27879C62.1545 8.72386 61.5887 9.37964 61.1673 10.2461C60.7506 11.1126 60.5423 12.1756 60.5423 13.435C60.5423 14.6945 60.7506 15.7575 61.1673 16.624C61.5887 17.4904 62.1545 18.1462 62.8647 18.5913C63.5797 19.0364 64.3775 19.2589 65.2582 19.2589C66.1388 19.2589 66.9343 19.0364 67.6445 18.5913C68.3595 18.1462 68.9253 17.4904 69.342 16.624C69.7634 15.7575 69.9741 14.6945 69.9741 13.435ZM76.4016 6.16231V20.7078H74.6403V6.16231H76.4016ZM87.3196 6.16231V20.7078H85.5582V6.16231H87.3196Z" fill="#D7D2FF"/>
<path d="M75.3342 4.70776C75.8864 4.70776 76.3342 4.26005 76.3342 3.70776C76.3342 3.15548 75.8864 2.70776 75.3342 2.70776V4.70776ZM12.1711 16.133L12.6148 17.0292L12.1711 16.133ZM8.55801 15.2611L7.75446 15.8563L8.55801 15.2611ZM15.5 4.70776H75.3342V2.70776H15.5V4.70776ZM14.3777 4.70776H15.5V2.70776H14.3777V4.70776ZM18.0564 12.1038L11.7275 15.2368L12.6148 17.0292L18.9436 13.8962L18.0564 12.1038ZM11.7275 15.2368C10.9046 15.6441 9.9081 15.4037 9.36157 14.6659L7.75446 15.8563C8.8772 17.372 10.9243 17.866 12.6148 17.0292L11.7275 15.2368ZM14.3777 2.70776C7.60816 2.70776 3.72503 10.4166 7.75446 15.8563L9.36157 14.6659C6.30987 10.5461 9.25078 4.70776 14.3777 4.70776V2.70776Z" fill="#D7D2FF"/>
<path d="M85.8001 8.06941L86.546 8.73555L85.8001 8.06941ZM84 3C83.4477 3 83 3.44772 83 4C83 4.55228 83.4477 5 84 5V3ZM75.5 20C76.2682 20.6402 76.2682 20.6402 76.2683 20.6401C76.2683 20.6401 76.2683 20.64 76.2684 20.64C76.2685 20.6398 76.2688 20.6395 76.269 20.6392C76.2696 20.6385 76.2705 20.6375 76.2717 20.6361C76.274 20.6333 76.2775 20.629 76.2822 20.6234C76.2917 20.6121 76.3058 20.5952 76.3244 20.5728C76.3618 20.5281 76.4174 20.4616 76.49 20.3748C76.6354 20.2012 76.8493 19.9463 77.1227 19.6215C77.6695 18.972 78.4544 18.0435 79.4062 16.9282C81.3102 14.697 83.88 11.7205 86.546 8.73555L85.0543 7.40328C82.3749 10.4032 79.7946 13.392 77.8849 15.6299C76.9298 16.7491 76.142 17.681 75.5927 18.3334C75.3181 18.6596 75.1031 18.9159 74.9566 19.0908C74.8834 19.1783 74.8273 19.2454 74.7895 19.2907C74.7705 19.3134 74.7562 19.3306 74.7465 19.3421C74.7417 19.3479 74.738 19.3523 74.7356 19.3553C74.7343 19.3567 74.7334 19.3579 74.7328 19.3586C74.7325 19.359 74.7322 19.3593 74.732 19.3595C74.732 19.3596 74.7319 19.3597 74.7319 19.3597C74.7318 19.3598 74.7318 19.3598 75.5 20ZM86.546 8.73555C88.5046 6.54258 86.976 3 84 3V5C85.2124 5 85.8857 6.47244 85.0543 7.40328L86.546 8.73555Z" fill="#D7D2FF"/>
<path d="M81.7906 2.30198C82.2764 3.57335 81.7946 4.9385 80.7146 5.35114C79.6346 5.76378 78.3652 5.06764 77.8795 3.79627C77.3938 2.52491 77.8755 1.15975 78.9556 0.747117C80.0356 0.33448 81.3049 1.03062 81.7906 2.30198Z" fill="#D7D2FF"/>
</svg>
